<svg width="151.000000" height="20.000000" viewBox="0 0 151 20" fill="none" xmlns="http://www.w3.org/2000/svg" xmlns:xlink="http://www.w3.org/1999/xlink">
	<desc>
			Created with Pixso.
	</desc>
	<defs/>
	<path id="logo" d="M16.33 0.16C16.62 0.03 16.95 -0.02 17.31 0C17.67 0.03 18.01 0.12 18.33 0.29C18.66 0.44 18.95 0.66 19.2 0.95Q19.3 1.05 19.38 1.17L19.38 1.17Q19.61 1.52 19.7 1.97Q19.75 2.21 19.75 2.47Q19.75 2.87 19.64 3.32C19.47 3.93 19.13 4.4 18.63 4.71C18.13 5.01 17.53 5.16 16.81 5.15C16.1 5.14 15.41 5.06 14.71 4.92C14.03 4.78 13.32 4.57 12.56 4.3L11.26 15.6C11.25 15.66 11.21 15.7 11.14 15.7L6.81 15.7L6.75 15.68C6.74 15.67 6.74 15.66 6.74 15.65Q6.74 15.63 6.75 15.6L8.45 3.11Q7.51 2.82 6.68 3L6.68 3Q6.63 3.01 6.57 3.03C5.99 3.17 5.61 3.51 5.45 4.05C5.42 4.16 5.4 4.27 5.4 4.38C5.4 4.52 5.43 4.66 5.49 4.8C5.6 5.05 5.71 5.25 5.83 5.42C5.93 5.55 5.99 5.65 5.99 5.72C5.99 5.75 5.98 5.77 5.97 5.79Q5.95 5.83 5.92 5.88L5.92 5.88Q5.57 6.51 4.77 6.88C4.22 7.15 3.64 7.26 3.06 7.21Q1.92 7.12 1.16 6.6C0.66 6.24 0.32 5.8 0.16 5.3Q0.09 5.06 0.05 4.82Q0 4.52 0 4.21Q0 3.98 0.02 3.74Q0.04 3.6 0.07 3.47Q0.22 2.81 0.66 2.22Q0.92 1.89 1.23 1.62Q1.6 1.3 2.06 1.08Q2.44 0.9 2.83 0.77L2.83 0.77Q3.96 0.39 5.21 0.41Q6.93 0.41 8.29 0.79Q9.64 1.18 11.46 1.52Q13.3 1.85 14.77 1.72C15.17 1.68 15.49 1.58 15.71 1.43C15.94 1.26 16.07 1.09 16.11 0.93C16.15 0.75 16.18 0.58 16.21 0.43C16.24 0.27 16.28 0.18 16.33 0.16ZM129.68 3.26C129.63 3.76 129.35 4.19 128.84 4.53C128.34 4.88 127.76 5.05 127.13 5.05C126.49 5.05 125.96 4.88 125.55 4.53C125.2 4.23 125.02 3.86 125.02 3.43C125.02 3.38 125.02 3.32 125.03 3.26Q125.05 3.11 125.1 2.97L125.1 2.97Q125.28 2.42 125.87 2.01C126.36 1.65 126.93 1.47 127.56 1.47C128.2 1.47 128.73 1.65 129.14 2.01Q129.51 2.32 129.63 2.71Q129.69 2.9 129.69 3.1C129.69 3.15 129.69 3.2 129.68 3.26ZM59.05 11.76C59.01 12.2 58.98 12.58 58.98 12.89C58.98 13.1 58.99 13.29 59.01 13.44C59.08 13.83 59.18 14.08 59.31 14.19C59.46 14.29 59.57 14.38 59.65 14.44Q59.7 14.48 59.72 14.53Q59.72 14.56 59.72 14.58C59.72 14.61 59.71 14.65 59.69 14.69Q59.47 15.19 58.69 15.64C58.18 15.92 57.65 16.06 57.12 16.06C56.43 16.06 55.86 15.87 55.42 15.48C54.98 15.09 54.74 14.55 54.68 13.86C53.71 15.33 52.57 16.06 51.25 16.06C50.45 16.06 49.78 15.8 49.23 15.27C48.69 14.74 48.32 14.09 48.12 13.3Q47.95 12.59 47.95 11.82C47.95 11.48 47.97 11.15 48.02 10.8C48.2 9.38 48.71 8.16 49.55 7.14C50.39 6.09 51.44 5.57 52.69 5.57C53.96 5.57 54.88 6.18 55.44 7.41L56.14 1.89C56.15 1.84 56.19 1.81 56.24 1.79L60.23 1.79C60.28 1.79 60.31 1.82 60.31 1.87C59.58 7.58 59.16 10.88 59.05 11.76ZM122.91 14.42C123.05 14.49 123.13 14.57 123.13 14.64Q123.13 14.65 123.13 14.65C123.13 14.73 123.03 14.87 122.85 15.06Q122.43 15.46 121.61 15.79Q120.81 16.12 120.03 16.12C119.38 16.12 118.82 16 118.34 15.75C117.87 15.51 117.53 15.2 117.32 14.83C117.11 14.46 116.93 14.05 116.78 13.61C116.65 13.21 116.58 12.84 116.58 12.49C116.58 12.46 116.58 12.43 116.58 12.4C116.61 12.01 116.62 11.69 116.62 11.43C116.66 11.15 116.75 11.01 116.9 11.01C117.9 11.01 118.56 10.65 118.9 9.93C119.01 9.68 119.06 9.45 119.06 9.23C119.06 8.97 118.99 8.74 118.84 8.52Q118.7 8.33 118.51 8.24Q118.35 8.16 118.14 8.16C117.59 8.16 117.17 8.36 116.86 8.77C116.55 9.19 116.36 9.66 116.28 10.2L115.6 15.58L115.5 15.7L111.65 15.7C111.6 15.68 111.57 15.65 111.57 15.6C112.52 7.86 113.08 3.3 113.27 1.91C113.28 1.87 113.31 1.85 113.35 1.83L117.26 1.83L117.32 1.85C117.33 1.87 117.34 1.88 117.34 1.91L116.62 7.56Q117.3 6.6 118.23 6.1L118.24 6.09Q118.26 6.08 118.28 6.07C118.93 5.74 119.58 5.57 120.23 5.57C121.31 5.57 122.07 6 122.51 6.87Q122.76 7.37 122.8 7.89Q122.8 7.96 122.8 8.04Q122.8 8.66 122.49 9.29C122.02 10.27 121.19 10.85 119.99 11.03L119.97 11.07C119.99 11.13 120.01 11.22 120.03 11.32C120.07 11.42 120.17 11.62 120.31 11.92C120.47 12.21 120.65 12.5 120.85 12.76C121.05 13.02 121.33 13.31 121.69 13.63C122.06 13.94 122.47 14.2 122.91 14.42ZM86.94 12.55C86.98 12.59 87 12.64 87 12.7Q87 12.77 86.96 12.86C86.85 13.11 86.67 13.39 86.42 13.71C86.16 14.02 85.83 14.35 85.42 14.71C85.02 15.06 84.51 15.35 83.88 15.6C83.27 15.83 82.62 15.95 81.95 15.95C80.43 15.95 79.2 15.43 78.27 14.4C77.5 13.55 77.11 12.54 77.11 11.39C77.11 11.16 77.12 10.92 77.16 10.68Q77.26 9.87 77.58 9.15Q78.08 7.99 79.13 7.06C80.26 6.04 81.59 5.5 83.12 5.44C84.33 5.44 85.35 5.68 86.18 6.15C86.91 6.56 87.27 7.13 87.27 7.85C87.27 7.94 87.27 8.04 87.25 8.14C87.2 8.63 86.96 9.07 86.54 9.47C86.11 9.87 85.62 10.07 85.06 10.07C84.75 10.07 84.46 10.03 84.18 9.95C83.9 9.87 83.74 9.8 83.7 9.74C83.69 9.65 83.68 9.58 83.68 9.55C83.68 9.51 83.7 9.42 83.72 9.29C83.75 9.15 83.77 9.04 83.78 8.95C83.8 8.84 83.8 8.74 83.8 8.65C83.8 8.38 83.75 8.16 83.64 7.98C83.5 7.74 83.28 7.62 83 7.62C82.5 7.62 82.07 7.94 81.71 8.58C81.36 9.21 81.17 9.91 81.15 10.68C81.15 10.74 81.14 10.8 81.14 10.85C81.14 11.59 81.31 12.18 81.65 12.61C82.01 13.06 82.47 13.32 83.04 13.38C83.63 13.43 84.23 13.39 84.86 13.25C85.48 13.11 86.08 12.88 86.66 12.57C86.78 12.5 86.87 12.49 86.94 12.55ZM147.94 10.01C149.89 10.59 150.86 11.49 150.86 12.71C150.86 12.81 150.85 12.91 150.84 13.02C150.75 13.75 150.39 14.36 149.76 14.85C149.14 15.32 148.44 15.64 147.69 15.81C146.93 15.99 146.13 16.07 145.29 16.06C144.61 16.05 143.95 15.97 143.29 15.81Q142.7 15.68 142.19 15.4Q141.86 15.22 141.56 14.98C141.12 14.63 140.9 14.21 140.9 13.73C140.9 13.65 140.91 13.58 140.92 13.5C140.99 13.01 141.22 12.6 141.62 12.26C142.03 11.92 142.52 11.75 143.07 11.76C143.39 11.78 143.71 11.82 144.01 11.9C144.33 11.97 144.5 12.05 144.53 12.13C144.56 12.23 144.57 12.3 144.57 12.34C144.57 12.37 144.56 12.45 144.53 12.59C144.5 12.73 144.49 12.84 144.47 12.92C144.46 13 144.45 13.08 144.45 13.16C144.45 13.42 144.53 13.63 144.67 13.79C144.87 13.99 145.15 14.1 145.51 14.11C146.2 14.11 146.59 13.83 146.69 13.27C146.69 13.24 146.69 13.22 146.69 13.19C146.69 13.04 146.66 12.91 146.59 12.8C146.52 12.66 146.38 12.53 146.17 12.42C145.96 12.3 145.78 12.21 145.63 12.15C145.48 12.08 145.22 11.99 144.83 11.88C144.45 11.75 144.18 11.66 144.03 11.61C143.3 11.34 142.71 10.96 142.26 10.47C141.87 10.04 141.68 9.54 141.68 8.97C141.68 8.87 141.69 8.76 141.7 8.66L141.7 8.6C141.82 7.66 142.38 6.92 143.39 6.36C144.41 5.8 145.47 5.53 146.59 5.55C147.86 5.58 148.94 5.82 149.82 6.27C150.6 6.66 151 7.19 151 7.87C151 7.95 150.99 8.03 150.98 8.12C150.92 8.59 150.71 8.99 150.32 9.31C149.93 9.64 149.44 9.79 148.84 9.78C148.51 9.76 148.2 9.72 147.9 9.64C147.63 9.55 147.47 9.47 147.45 9.39C147.44 9.38 147.44 9.36 147.44 9.32C147.44 9.21 147.47 8.97 147.53 8.6Q147.55 8.45 147.55 8.31C147.55 8.07 147.49 7.88 147.39 7.75Q147.37 7.73 147.35 7.72L147.35 7.72Q147.13 7.48 146.65 7.5C146.35 7.5 146.11 7.6 145.91 7.79Q145.63 8.08 145.59 8.39C145.58 8.44 145.58 8.5 145.58 8.55C145.58 8.87 145.72 9.12 146.01 9.29C146.35 9.49 146.91 9.7 147.69 9.93Q147.73 9.95 147.75 9.95C147.76 9.95 147.78 9.96 147.8 9.97C147.83 9.97 147.85 9.98 147.86 9.99C147.89 9.99 147.92 10 147.94 10.01ZM34 12.67C34.05 12.71 34.07 12.76 34.07 12.82C34.07 12.87 34.05 12.92 34.02 12.98Q33.66 13.86 32.21 14.96C31.24 15.7 30.11 16.06 28.83 16.06C27.33 16.06 26.11 15.55 25.18 14.52C24.42 13.66 24.04 12.66 24.04 11.52C24.04 11.28 24.05 11.04 24.08 10.8C24.27 9.35 24.96 8.11 26.14 7.1Q26.79 6.53 27.53 6.18L27.53 6.18Q28.83 5.55 30.43 5.55C31.92 5.55 33.03 5.91 33.74 6.63Q34.59 7.45 34.7 8.35Q34.72 8.49 34.72 8.64Q34.72 8.77 34.7 8.91C34.61 9.63 34.32 10.23 33.84 10.72C33.38 11.2 32.83 11.52 32.19 11.69C31.55 11.85 30.86 11.96 30.11 12.01C29.38 12.06 28.69 12.02 28.06 11.88C28.27 12.82 28.94 13.36 30.07 13.5C31.22 13.64 32.44 13.37 33.74 12.69C33.84 12.62 33.92 12.62 34 12.67ZM140.01 12.67C140.05 12.71 140.08 12.76 140.08 12.82C140.08 12.87 140.06 12.92 140.03 12.98C139.79 13.57 139.19 14.23 138.22 14.96C137.24 15.7 136.12 16.06 134.84 16.06C133.34 16.06 132.12 15.55 131.19 14.52C130.43 13.66 130.05 12.66 130.05 11.52C130.05 11.28 130.06 11.04 130.09 10.8C130.28 9.35 130.96 8.11 132.15 7.1C133.33 6.07 134.76 5.55 136.44 5.55C137.93 5.55 139.03 5.91 139.75 6.63Q140.6 7.45 140.71 8.35Q140.73 8.49 140.73 8.64C140.73 8.73 140.72 8.82 140.71 8.91C140.62 9.63 140.33 10.23 139.85 10.72C139.39 11.2 138.83 11.52 138.2 11.69C137.56 11.85 136.86 11.96 136.12 12.01Q135.02 12.09 134.06 11.88C134.28 12.82 134.95 13.36 136.08 13.5C137.22 13.64 138.45 13.37 139.75 12.69C139.84 12.62 139.93 12.62 140.01 12.67ZM45.96 11.76C45.92 12.13 45.89 12.45 45.89 12.73C45.89 12.91 45.9 13.07 45.92 13.21C45.99 13.54 46.08 13.8 46.2 13.98C46.32 14.15 46.45 14.26 46.58 14.33C46.72 14.38 46.82 14.44 46.88 14.5C46.92 14.53 46.94 14.57 46.94 14.62C46.94 14.65 46.94 14.68 46.92 14.71C46.76 15.03 46.42 15.34 45.9 15.64C45.39 15.92 44.86 16.06 44.33 16.06C43.5 16.06 42.84 15.8 42.33 15.27C41.94 14.84 41.74 14.29 41.74 13.63C41.74 13.47 41.75 13.3 41.77 13.13L42.25 9.39C42.27 9.28 42.27 9.17 42.27 9.08C42.27 8.59 42.11 8.33 41.77 8.27C41.39 8.21 41.01 8.43 40.64 8.95C40.34 9.36 40.16 9.85 40.08 10.41L39.42 15.58C39.42 15.64 39.38 15.68 39.32 15.7L35.33 15.7C35.27 15.68 35.25 15.65 35.25 15.6C35.73 12.67 36.02 10.76 36.14 9.87C36.19 9.5 36.22 9.18 36.22 8.92C36.22 8.74 36.21 8.58 36.18 8.45C36.13 8.1 36.05 7.84 35.95 7.67C35.84 7.5 35.73 7.38 35.61 7.33C35.5 7.26 35.41 7.21 35.35 7.15C35.32 7.13 35.3 7.09 35.3 7.05C35.3 7.02 35.31 6.98 35.33 6.94C35.47 6.61 35.81 6.3 36.32 6.02C36.84 5.72 37.37 5.57 37.9 5.57C38.61 5.57 39.18 5.78 39.62 6.19C40.07 6.59 40.32 7.14 40.36 7.83Q41.09 6.67 42.09 6.13C42.77 5.76 43.41 5.57 44.01 5.57C44.78 5.57 45.39 5.87 45.84 6.46C46.21 6.93 46.4 7.51 46.4 8.2C46.4 8.38 46.39 8.56 46.36 8.75C46.34 8.99 46.28 9.42 46.18 10.05C46.1 10.66 46.03 11.24 45.96 11.76ZM71.2 14.27C71.04 15.98 70.41 17.36 69.32 18.41C68.23 19.47 66.78 20 64.97 20C64.29 20 63.67 19.89 63.12 19.69C62.57 19.49 62.14 19.25 61.84 18.95C61.53 18.66 61.29 18.38 61.12 18.11C60.96 17.84 60.86 17.59 60.82 17.37Q60.74 16.99 60.74 16.75Q60.74 16.7 60.74 16.66C60.77 16.51 60.8 16.4 60.84 16.35C60.89 16.3 60.96 16.28 61.04 16.29C61.13 16.31 61.26 16.4 61.42 16.56C61.58 16.73 61.74 16.9 61.92 17.08C62.1 17.28 62.4 17.45 62.8 17.6C63.2 17.76 63.65 17.84 64.15 17.84C64.91 17.84 65.54 17.62 66.05 17.2C66.57 16.78 66.89 16.25 67.01 15.64L67.25 13.71C66.77 14.48 66.21 15.05 65.57 15.41Q64.63 15.95 63.73 15.95C62.98 15.95 62.36 15.65 61.9 15.06Q61.82 14.95 61.75 14.84Q61.36 14.2 61.36 13.33Q61.36 13.06 61.4 12.76L61.76 9.87C61.8 9.54 61.82 9.24 61.82 8.99C61.82 8.78 61.81 8.6 61.78 8.45C61.72 8.1 61.64 7.84 61.52 7.67C61.4 7.5 61.27 7.38 61.14 7.33C61.02 7.26 60.92 7.21 60.84 7.15C60.8 7.12 60.78 7.08 60.78 7.04C60.78 7.01 60.79 6.98 60.8 6.94C60.96 6.61 61.3 6.3 61.82 6.02C62.34 5.72 62.86 5.57 63.39 5.57C64.23 5.57 64.9 5.84 65.39 6.38C65.79 6.81 65.98 7.35 65.98 8C65.98 8.16 65.97 8.33 65.95 8.5L65.49 12.13C65.48 12.25 65.47 12.36 65.47 12.47C65.47 12.94 65.62 13.2 65.93 13.25C66.3 13.31 66.66 13.08 67.01 12.55C67.27 12.14 67.45 11.67 67.53 11.13L68.18 6.06C68.18 6 68.21 5.97 68.26 5.96L72.12 5.96C72.17 5.96 72.2 5.99 72.2 6.06C71.76 9.82 71.42 12.56 71.2 14.27ZM21.94 5.61C22.6 5.61 23.1 5.8 23.46 6.19Q23.57 6.3 23.65 6.42Q23.91 6.81 23.91 7.38C23.91 7.51 23.9 7.64 23.88 7.77C23.79 8.54 23.47 9.15 22.92 9.6C22.39 10.04 21.77 10.26 21.07 10.26C20.85 10.26 20.65 10.21 20.45 10.12C20.26 10.03 20.15 9.95 20.11 9.87C20.1 9.84 20.1 9.81 20.1 9.79C20.1 9.77 20.1 9.75 20.11 9.74C20.12 9.7 20.14 9.62 20.17 9.51C20.21 9.39 20.23 9.28 20.25 9.18C20.26 9.07 20.27 8.98 20.27 8.89C20.27 8.52 20.13 8.33 19.85 8.33C19.58 8.33 19.38 8.52 19.23 8.91C19.1 9.28 18.98 9.82 18.89 10.51L18.25 15.62C18.24 15.67 18.2 15.7 18.15 15.71L14.14 15.71L14.08 15.66L14.08 15.62C14.56 12.7 14.85 10.8 14.96 9.91C15 9.55 15.02 9.22 15.02 8.94C15.02 8.66 15 8.43 14.96 8.23C14.88 7.85 14.76 7.6 14.6 7.5C14.45 7.39 14.33 7.3 14.22 7.23C14.16 7.19 14.13 7.14 14.13 7.09Q14.13 7.04 14.16 6.98C14.32 6.65 14.66 6.34 15.18 6.06C15.7 5.76 16.22 5.61 16.75 5.61C17.43 5.61 17.99 5.8 18.41 6.17Q18.6 6.33 18.73 6.52Q19.09 7.01 19.15 7.71C19.5 7.08 19.92 6.58 20.43 6.19C20.95 5.8 21.45 5.61 21.94 5.61ZM97.84 7.42C98.61 8.32 99 9.35 99 10.51C99 10.74 98.99 10.98 98.95 11.22C98.77 12.67 98.08 13.87 96.9 14.81C95.73 15.73 94.33 16.15 92.71 16.04Q91.06 15.92 89.88 15.12Q89.34 14.76 88.9 14.25C88.12 13.35 87.73 12.32 87.73 11.16C87.73 10.93 87.75 10.69 87.78 10.45Q87.9 9.55 88.28 8.78Q88.81 7.7 89.85 6.88C91.06 5.95 92.46 5.53 94.05 5.63C95.64 5.75 96.91 6.34 97.84 7.42ZM109.94 7.42C110.72 8.32 111.11 9.35 111.11 10.51C111.11 10.74 111.09 10.98 111.06 11.22C110.87 12.67 110.19 13.87 109 14.81C107.83 15.73 106.44 16.15 104.81 16.04Q103.17 15.92 101.99 15.12Q101.44 14.76 101 14.25Q100.36 13.5 100.07 12.64Q99.84 11.94 99.84 11.16Q99.84 10.81 99.88 10.45Q100 9.55 100.38 8.78Q100.91 7.7 101.96 6.88C103.17 5.95 104.57 5.53 106.15 5.63C107.75 5.75 109.01 6.34 109.94 7.42ZM124.85 6.06L124.95 5.94L128.94 5.94C129.01 5.95 129.04 5.98 129.04 6.04C128.56 8.97 128.26 10.88 128.14 11.76C128.1 12.13 128.07 12.45 128.07 12.73C128.07 12.91 128.08 13.07 128.1 13.21C128.16 13.54 128.23 13.8 128.32 13.98C128.43 14.15 128.54 14.26 128.66 14.33C128.78 14.38 128.87 14.43 128.92 14.48C128.95 14.51 128.97 14.55 128.97 14.59C128.97 14.62 128.96 14.65 128.94 14.69C128.79 15.03 128.46 15.34 127.94 15.64C127.42 15.92 126.9 16.06 126.37 16.06C125.54 16.06 124.9 15.8 124.45 15.27C124.1 14.85 123.92 14.3 123.92 13.64C123.92 13.48 123.93 13.31 123.95 13.13L124.85 6.06ZM29.43 7.93C28.79 8.26 28.36 9.01 28.12 10.18C28.97 10.26 29.63 10.16 30.11 9.89C30.6 9.61 30.88 9.2 30.95 8.66Q30.96 8.59 30.96 8.52Q30.96 8.37 30.91 8.25Q30.85 8.1 30.73 7.98C30.56 7.8 30.32 7.72 30.01 7.73C30.01 7.75 30.01 7.75 29.99 7.75L29.93 7.75C29.75 7.78 29.58 7.84 29.43 7.93ZM135.44 7.93C134.8 8.26 134.36 9.01 134.12 10.18C134.98 10.26 135.64 10.16 136.12 9.89C136.61 9.61 136.89 9.2 136.96 8.66Q136.97 8.59 136.97 8.52Q136.97 8.37 136.92 8.25Q136.86 8.1 136.74 7.98C136.57 7.8 136.33 7.72 136.02 7.73C136.02 7.75 136.01 7.75 136 7.75L135.94 7.75C135.75 7.78 135.59 7.84 135.44 7.93ZM91.71 10.72C91.67 11.03 91.65 11.31 91.65 11.58C91.65 12.09 91.72 12.54 91.85 12.94C92.06 13.53 92.44 13.84 92.99 13.88C93.55 13.92 93.99 13.67 94.32 13.13C94.67 12.59 94.9 11.87 95.02 10.95Q95.09 10.47 95.09 10.05Q95.09 9.3 94.88 8.74C94.68 8.14 94.31 7.83 93.77 7.79C93.21 7.75 92.75 8.01 92.41 8.56C92.06 9.11 91.83 9.83 91.71 10.72ZM103.81 10.72C103.78 11.03 103.76 11.31 103.76 11.58Q103.76 12.35 103.95 12.94C104.17 13.53 104.55 13.84 105.09 13.88C105.65 13.92 106.1 13.67 106.43 13.13C106.77 12.59 107.01 11.87 107.13 10.95C107.17 10.63 107.19 10.33 107.19 10.05C107.19 9.55 107.12 9.11 106.99 8.74C106.79 8.14 106.42 7.83 105.87 7.79C105.31 7.75 104.86 8.01 104.51 8.56C104.17 9.11 103.93 9.83 103.81 10.72ZM52.27 12.67C52.47 13.16 52.81 13.4 53.29 13.4C53.76 13.4 54.16 13.16 54.48 12.67C54.82 12.18 55.03 11.56 55.12 10.8Q55.17 10.44 55.17 10.12Q55.17 9.43 54.96 8.93C54.76 8.43 54.43 8.18 53.96 8.18C53.48 8.18 53.08 8.43 52.75 8.93C52.41 9.43 52.2 10.05 52.11 10.8C52.08 11.04 52.06 11.27 52.06 11.48C52.06 11.94 52.13 12.34 52.27 12.67Z" fill="#FFFFFF" fill-opacity="1.000000" fill-rule="evenodd"/>
</svg>
